<svg viewBox="0 0 320 489" fill="none" xmlns="http://www.w3.org/2000/svg">
    <path d="M-65.9857 242.413C-83.3984 247.882 -93.3138 261.436 -95.7949 264.927C-98.864 269.24 -109.385 283.868 -106.894 302.276C-105.245 314.41 -97.706 324.808 -89.048 333.213C-72.2186 349.509 -50.7919 360.142 -27.5969 363.711C3.25862 368.385 35.7644 360.286 65.7937 368.573C85.8503 374.108 103.704 386.66 122.061 396.766C136.979 404.977 152.217 411.563 169.214 411.425C199.516 411.182 225.974 388.996 244.374 364.205C255.619 349.05 265.249 331.57 265.786 312.807C266.292 295.187 258.769 278.623 255.767 261.339C252.09 239.834 255.427 217.549 265.277 197.827C272.497 183.487 283.355 169.669 282.998 153.727C282.826 145.943 279.405 139.165 274.629 133.439C264.718 121.574 249.077 114.291 244.853 112.175C223.266 101.362 214.465 108.274 187.591 94.8756C171.154 86.6964 172.838 83.3211 160.791 79.7649C134.346 71.9504 109.19 83.1782 106.827 84.2685C94.3479 90.0445 95.5622 93.1129 86.273 96.0285C71.4596 100.681 56.5394 91.4772 41.4196 88.7749C26.6166 86.1288 9.98816 90.8016 -1.47752 99.4615C-19.62 113.157 -22.9143 136.2 -23.1403 138.658C-23.9835 147.796 -23.3986 155.03 -21.9239 161.278C-16.5226 184.176 -5.31585 187.439 -2.20033 205.364C-0.413419 215.645 -0.795434 234.646 -11.3881 242.521C-24.7087 252.438 -40.1507 234.295 -65.9857 242.413Z" fill="url(#paint0_linear)"/>

    <defs>
        <linearGradient id="paint0_linear" x1="42.2756" y1="81.613" x2="157.784" y2="418.864" gradientUnits="userSpaceOnUse">
            <stop offset="0.23" stop-color="#00FFB5"/>
            <stop offset="0.35" stop-color="#20FFA0"/>
            <stop offset="0.62" stop-color="#72FF6B"/>
            <stop offset="1" stop-color="#EFFF19"/>
        </linearGradient>
    </defs>
</svg>
