<svg width="202" height="221" viewBox="0 0 202 221" fill="none" xmlns="http://www.w3.org/2000/svg">
    <g clip-path="url(#clip0)">
        <path d="M108.17 203.044C108.17 205.463 108.17 207.726 108.17 209.989C108.17 214.203 105.052 217.402 101.078 217.48C97.0255 217.558 93.8302 214.203 93.7523 209.989C93.7523 207.804 93.7523 205.619 93.7523 203.2C92.1157 203.122 90.635 203.122 89.0764 202.888C83.0756 202.107 79.3349 197.815 79.3349 191.807C79.3349 189.622 79.2569 187.359 79.3349 185.174C79.3349 184.16 79.3349 182.989 79.8025 182.131C80.7377 180.336 80.348 179.243 78.7893 177.917C76.7631 176.278 75.9059 173.781 75.8279 171.206C75.75 169.333 75.75 167.46 75.8279 165.588C75.9838 160.749 73.8796 157.238 69.7492 154.663C66.554 152.634 63.3588 150.449 60.4753 147.874C45.8241 134.686 38.8881 118.065 39.8233 98.4786C41.0702 70.3084 62.2677 46.5081 90.0116 41.514C124.302 35.2713 157.189 58.5253 161.709 93.1723C165.06 118.611 155.475 138.9 134.355 153.492C133.342 154.195 132.251 154.819 131.238 155.443C128.042 157.628 126.484 160.671 126.406 164.495C126.406 166.446 126.406 168.397 126.406 170.348C126.328 173.781 125.237 176.746 122.431 178.853C121.652 179.478 121.574 179.946 121.886 180.96C122.353 182.365 122.665 183.847 122.743 185.33C122.899 187.437 122.743 189.466 122.743 191.573C122.743 198.518 118.379 203.044 111.443 203.2C110.352 203.044 109.417 203.044 108.17 203.044Z" stroke="#E5E5E5" stroke-width="9" stroke-miterlimit="10"/>
        <path d="M27.8997 34.0227C28.2114 31.2135 29.0687 29.4968 31.0949 28.5604C33.1211 27.624 35.2253 27.702 36.9398 29.2627C39.6674 31.7598 42.3171 34.4129 44.733 37.1441C46.8372 39.4851 46.6034 42.5284 44.3434 44.6353C42.3951 46.5081 39.044 46.5081 36.9398 44.4792C34.446 42.1382 31.9522 39.7192 29.6921 37.1441C28.7569 36.2077 28.2893 34.8031 27.8997 34.0227Z" fill="#E5E5E5"/>
        <path d="M161.475 155.755C162.8 156.458 164.281 157.004 165.372 157.94C167.71 159.969 169.814 162.31 171.996 164.495C174.568 167.148 174.646 170.348 172.386 172.611C170.204 174.795 166.853 174.561 164.281 172.064C162.021 169.801 159.761 167.616 157.579 165.275C156.02 163.559 155.397 161.608 156.41 159.345C157.345 157.316 158.981 156.223 161.475 155.755Z" fill="#E5E5E5"/>
        <path d="M10.365 106.516C8.80633 106.516 7.24768 106.594 5.68904 106.516C2.41589 106.36 0.0779314 104.253 -6.77072e-07 101.288C-0.0779328 98.2444 2.10417 95.8254 5.45525 95.6693C8.80633 95.5132 12.2353 95.5132 15.5864 95.6693C19.0154 95.8254 21.1196 98.1664 21.0417 101.288C20.9637 104.253 18.7037 106.36 15.4306 106.516C13.716 106.516 12.0795 106.516 10.365 106.516Z" fill="#E5E5E5"/>
        <path d="M191.323 106.516C189.687 106.516 188.05 106.594 186.491 106.516C183.218 106.36 180.958 104.175 180.88 101.21C180.802 98.3225 182.907 95.9815 186.102 95.7474C189.687 95.5133 193.272 95.5133 196.779 95.7474C200.052 95.9034 202.078 98.3225 201.922 101.444C201.766 104.331 199.584 106.438 196.389 106.516C194.752 106.516 193.038 106.516 191.323 106.516Z" fill="#E5E5E5"/>
        <path d="M95.6227 10.5346C95.6227 8.81784 95.6227 7.02306 95.6227 5.30632C95.7006 2.34104 97.8827 0.156098 100.766 0.0780639C103.65 3.01972e-05 106.221 1.95087 106.377 4.91615C106.533 8.66177 106.533 12.4074 106.377 16.231C106.221 19.1183 103.65 21.2252 100.844 21.1472C97.8827 21.0691 95.7006 18.7281 95.6227 15.6848C95.6227 13.89 95.6227 12.1733 95.6227 10.5346Z" fill="#E5E5E5"/>
        <path d="M27.8997 168.085C28.3673 167.304 28.9128 165.822 29.9259 164.729C32.108 162.31 34.446 160.047 36.7839 157.784C38.966 155.677 42.2392 155.599 44.3434 157.472C46.6034 159.579 46.8372 162.7 44.6551 165.119C42.1613 167.772 39.5895 170.348 36.9398 172.845C35.3032 174.405 33.1991 174.561 31.0949 173.547C29.0687 172.689 28.1335 170.972 27.8997 168.085Z" fill="#E5E5E5"/>
        <path d="M168.567 27.78C170.749 28.0141 172.386 28.9505 173.399 30.8233C174.412 32.6962 174.49 34.725 173.087 36.2857C170.36 39.329 167.476 42.2163 164.437 44.9474C162.488 46.6642 159.449 46.196 157.579 44.3232C155.708 42.4504 155.241 39.6412 157.033 37.6123C159.683 34.569 162.644 31.6817 165.606 28.9505C166.307 28.3263 167.554 28.1702 168.567 27.78Z" fill="#E5E5E5"/>
        <path d="M143.317 96.3716C133.03 96.3716 118.535 97.23 111.131 104.643C107.936 107.843 106.299 113.071 106.767 119.001C106.845 119.782 107.312 120.484 108.092 120.718C108.871 120.952 109.65 120.718 110.196 120.172C114.326 115.334 119.47 111.432 125.471 108.623C126.016 108.389 126.562 108.389 127.107 108.545C127.575 108.701 127.965 109.013 128.198 109.481C128.588 110.34 128.51 111.51 127.107 112.134C127.029 112.134 126.951 112.212 126.873 112.291H126.796C111.988 119.236 104.741 131.409 101.468 143.894C99.0517 128.287 93.9861 119.079 89.1543 113.461C85.6474 108.935 82.2963 106.594 80.2701 105.189C79.8804 104.955 78.7894 104.175 78.3218 103.707C77.5424 102.926 77.5424 101.756 78.3218 100.976C79.1011 100.195 80.2701 100.195 81.1273 101.054C81.3611 101.21 81.6728 101.444 82.0625 101.756L82.3742 101.99C85.1798 103.941 90.3233 107.452 94.9992 115.1C95.3889 115.802 96.2461 116.114 96.9475 116.036C97.7269 115.88 98.3503 115.256 98.5062 114.475C99.5193 109.325 99.0517 101.678 94.4537 97.0739C87.0501 89.6607 72.5548 88.8024 62.2677 88.8024C61.1767 88.8024 60.3194 89.6607 60.3194 90.7532C60.3194 101.054 61.1767 115.568 68.5802 122.981C71.6975 126.102 76.4514 127.429 81.2052 127.429C85.1018 127.429 88.8426 126.493 91.7261 124.776C95.7006 132.969 98.8179 145.221 98.8179 164.027C98.8179 165.119 99.6752 165.978 100.766 165.978C101.857 165.978 102.715 165.119 102.715 164.027C102.715 153.57 104.507 141.007 111.209 130.628C113.859 133.204 118.457 134.92 123.6 135.076C123.834 135.076 124.068 135.076 124.38 135.076C129.523 135.076 134.121 133.438 137.005 130.55C144.408 123.137 145.265 108.623 145.265 98.3225C145.265 97.23 144.408 96.3716 143.317 96.3716Z" fill="url(#paint0_linear)"/>
    </g>
    <defs>
        <linearGradient id="paint0_linear" x1="60.3679" y1="127.327" x2="145.251" y2="127.327" gradientUnits="userSpaceOnUse">
            <stop stop-color="#00FFB5"/>
            <stop offset="0.1248" stop-color="#04FFB2"/>
            <stop offset="0.2539" stop-color="#11FFAA"/>
            <stop offset="0.3851" stop-color="#25FF9D"/>
            <stop offset="0.5177" stop-color="#42FF8A"/>
            <stop offset="0.6515" stop-color="#68FF71"/>
            <stop offset="0.7862" stop-color="#96FF53"/>
            <stop offset="0.9192" stop-color="#CBFF31"/>
            <stop offset="1" stop-color="#EFFF19"/>
        </linearGradient>

        <clipPath id="clip0">
            <rect width="202" height="220.991" fill="white"/>
        </clipPath>
    </defs>
</svg>