<svg width="192" height="181" viewBox="0 0 192 181" fill="none" xmlns="http://www.w3.org/2000/svg">
    <g clip-path="url(#clip0)">
        <path d="M191.708 121.619C190.424 122.524 189.14 123.458 187.827 124.362C166.614 138.923 145.401 153.454 124.246 168.044C118.468 172.012 112.019 173.938 105.162 174.93C98.276 175.922 91.5648 174.843 84.8243 173.588C72.6274 171.312 60.4012 169.094 48.2043 166.789C44.1775 166.03 40.2091 165.826 36.3866 167.402C34.2565 168.277 32.2432 169.532 30.2882 170.757C25.1818 173.909 20.1046 177.148 15.0274 180.328C14.6772 180.532 14.3271 180.737 13.831 180.999C13.1599 178.869 12.5179 176.827 11.876 174.755C8.08267 162.266 4.26018 149.777 0.466865 137.318C0.350148 136.968 0.26261 136.618 0.145893 136.267C-0.0583628 135.625 0.116713 135.159 0.787838 134.925C6.7696 132.999 11.3216 128.973 15.8152 124.829C24.9191 116.455 35.8322 113.099 48.0875 113.741C54.3611 114.091 60.2261 115.871 65.7994 118.701C71.6936 121.707 77.9964 123.078 84.6201 123.137C94.366 123.224 104.112 123.283 113.858 123.399C119.869 123.458 126.376 128.01 128.535 133.67C129.002 134.896 129.323 136.18 129.79 137.639C127.368 137.522 125.238 137.347 123.137 137.347C114.208 137.347 105.279 137.376 96.3793 137.464C93.2572 137.493 90.1641 137.639 87.042 137.814C84.9994 137.931 83.8322 139.215 83.8906 141.024C83.9198 142.541 84.7368 143.65 86.2249 143.912C87.4213 144.117 88.676 144.175 89.8724 144.146C99.91 144.029 109.919 143.796 119.956 143.767C123.75 143.737 127.572 144.087 131.365 144.263C131.978 144.292 132.591 144.35 133.204 144.321C135.334 144.233 136.18 143.591 136.618 141.52C136.909 140.002 137.726 139.098 139.04 138.398C151.207 131.861 163.346 125.296 175.543 118.789C180.678 116.046 186.806 116.805 190.891 120.481C191.212 120.773 191.679 120.919 192.088 121.153C191.912 121.298 191.796 121.444 191.708 121.619Z" fill="white"/>
        <path d="M129.79 125.413C131.686 124.392 133.495 123.37 135.334 122.407C140.819 119.489 146.363 116.659 151.762 113.624C156.459 110.969 161.187 112.282 164.63 115.112C165.447 115.784 166.176 116.542 167.081 117.359C156.343 123.137 145.721 128.885 134.954 134.663C133.262 131.599 131.54 128.564 129.79 125.413Z" fill="white"/>
        <path d="M143.475 113.683C140.032 115.55 136.705 117.359 133.379 119.168C131.657 120.102 129.965 121.094 128.185 121.882C127.455 122.203 126.405 122.437 125.763 122.174C122.349 120.627 119.022 118.906 115.492 117.184C120.277 114.12 124.8 111.027 130.402 110.269C135.159 109.598 139.39 111.115 143.475 113.683Z" fill="white"/>
        <path d="M138.719 46.687C138.719 72.4231 117.855 93.2863 92.0316 93.3739C66.2662 93.4614 45.2863 72.4231 45.3155 46.4827C45.3446 20.8633 66.3538 -0.0291488 92.0899 3.05278e-05C117.826 0.0292099 138.719 20.9508 138.719 46.687ZM73.1234 43.8274C73.1234 45.8116 73.1234 47.6499 73.1234 49.5465C71.8687 49.5465 70.5848 49.5465 69.3301 49.5465C68.5714 49.5465 68.2212 49.8383 68.2212 50.6262C68.2504 51.8225 68.2212 52.9897 68.2212 54.1861C68.2212 55.0614 68.4839 55.324 69.3592 55.324C70.8182 55.324 72.2772 55.3532 73.7361 55.324C74.3489 55.2949 74.5823 55.4991 74.7866 56.0827C76.2456 60.0803 78.5215 63.5526 81.7021 66.4414C90.1641 74.1447 102.682 73.8529 110.794 65.7702C111.553 65.0116 111.553 64.7198 110.765 64.0195C109.422 62.794 108.08 61.5684 106.738 60.3137C105.95 59.5842 105.746 59.6134 104.929 60.3137C102.536 62.4438 99.7641 63.8152 96.5252 63.9611C92.0316 64.1654 88.4425 62.2979 85.5829 58.9423C84.6784 57.8918 83.9781 56.6955 83.1611 55.5575C83.2194 55.4991 83.2778 55.4116 83.3361 55.3532C83.6279 55.3532 83.9197 55.3532 84.2115 55.3532C88.0632 55.3532 91.8857 55.3532 95.7374 55.3532C96.8462 55.3532 97.0504 55.149 97.0504 54.0693C97.0504 52.9897 97.0504 51.9101 97.0504 50.8304C97.0504 49.7216 96.8753 49.5465 95.7374 49.5465C91.2437 49.5465 86.7501 49.5465 82.2273 49.5465C81.9355 49.5465 81.6437 49.5465 81.2644 49.5465C81.2644 47.5623 81.2644 45.6949 81.2644 43.7398C82.344 43.7398 83.2778 43.7398 84.2115 43.7398C88.0632 43.7398 91.944 43.7398 95.7957 43.7398C96.7878 43.7398 97.0212 43.5064 97.0212 42.5435C97.0212 41.4055 97.0212 40.2675 97.0212 39.1587C97.0212 38.1666 96.817 37.9623 95.7957 37.9623C91.944 37.9623 88.0632 37.9623 84.2115 37.9623C83.9197 37.9623 83.6279 37.9623 83.307 37.9623C83.307 37.7873 83.307 37.6997 83.3361 37.6414C85.4079 33.7022 88.3842 30.7842 92.7902 29.7046C97.4589 28.5374 101.486 29.938 104.987 33.1186C105.717 33.7897 105.95 33.7897 106.65 33.1478C108.051 31.893 109.422 30.6091 110.794 29.3544C111.465 28.7417 111.465 28.3332 110.823 27.6912C103.937 20.8049 93.7532 19.3751 85.5538 24.1313C80.3307 27.1368 76.8875 31.6596 74.8158 37.2329C74.5532 37.904 74.2322 38.1082 73.5611 38.0791C72.1896 38.0207 70.789 38.0499 69.4176 38.0791C68.3963 38.0791 68.1921 38.2833 68.1921 39.2754C68.1921 40.3842 68.1921 41.493 68.1921 42.6019C68.1921 43.6815 68.3671 43.8566 69.4468 43.8566C70.6723 43.8274 71.8978 43.8274 73.1234 43.8274Z" fill="url(#paint0_linear)"/>
    </g>

    <defs>
        <linearGradient id="paint0_linear" x1="45.3338" y1="46.692" x2="138.728" y2="46.692" gradientUnits="userSpaceOnUse">
            <stop stop-color="#00FFB5"/>
            <stop offset="0.1248" stop-color="#04FFB2"/>
            <stop offset="0.2539" stop-color="#11FFAA"/>
            <stop offset="0.3851" stop-color="#25FF9D"/>
            <stop offset="0.5177" stop-color="#42FF8A"/>
            <stop offset="0.6515" stop-color="#68FF71"/>
            <stop offset="0.7862" stop-color="#96FF53"/>
            <stop offset="0.9192" stop-color="#CBFF31"/>
            <stop offset="1" stop-color="#EFFF19"/>
        </linearGradient>
    
        <clipPath id="clip0">
            <rect width="192" height="180.999" fill="white"/>
        </clipPath>
    </defs>
</svg>
