<svg width="291" height="218" viewBox="0 0 291 218" fill="none" xmlns="http://www.w3.org/2000/svg">
<path d="M250.173 39H39.8267C33.3502 39 28 44.3559 28 50.8394V163.595H262V50.8394C262 44.3559 256.65 39 250.173 39Z" fill="#E5E5E5"/>
<path d="M28 175.435C28 181.918 33.3502 187.274 39.8267 187.274H125.993V204.469H100.931V218H188.787V204.469H163.726V187.274H249.892C256.368 187.274 261.718 181.918 261.718 175.435V168.951H28V175.435Z" fill="#E5E5E5"/>
<path d="M242.274 46H47.0013C40.9506 46 36 50.703 36 56.236V155H253V56.236C253 50.703 248.324 46 242.274 46Z" fill="#000F16"/>
<circle cx="241.985" cy="47.7566" r="32.5" fill="#000F16"/>
<path d="M258.004 30.9473L236.498 53.3927L225.516 43.7732L219.11 51.1024L233.753 63.9283L237.413 67.1348L240.616 63.4703L264.868 37.3603L258.004 30.9473Z" fill="url(#paint0_linear)"/>
<path d="M227.347 93.2452C229.177 94.1613 230.55 95.0774 231.922 95.9936L219.11 123.936L211.789 109.736C211.331 108.82 209.958 107.903 208.586 108.361L193.485 112.484L206.298 84.0837C207.213 86.8322 208.586 88.6644 210.416 90.4967C213.619 92.329 217.28 93.2451 220.94 92.329C223.228 92.329 225.059 92.7871 227.347 93.2452Z" fill="url(#paint1_linear)"/>
<path d="M290.493 112.484L277.68 84.0837C276.765 86.8322 275.393 88.6644 273.562 90.4967C270.359 92.329 266.698 93.2451 263.038 92.329C261.208 92.329 258.92 92.329 257.089 92.7871C255.259 93.7032 253.886 94.6194 252.513 95.5355L265.326 123.478L272.647 109.278C273.105 108.361 274.477 107.445 275.85 107.903L290.493 112.484Z" fill="url(#paint2_linear)"/>
<path d="M286.832 55.6831C285.917 53.3928 285.002 50.6444 285.002 47.8959C285.002 45.1475 285.917 42.3991 286.832 40.1087C287.747 37.8184 288.205 35.528 288.205 33.2377C287.747 31.4054 285.459 29.5731 282.714 28.1989C280.426 26.8247 278.596 24.9924 276.765 23.1601C275.393 20.8698 274.477 18.5794 273.562 15.831C273.105 13.5406 272.189 11.2503 270.359 9.418C268.071 8.50186 265.783 8.04379 263.038 8.50186C260.292 8.50186 257.547 8.50186 255.259 8.04379C252.971 7.12765 250.683 5.75344 248.853 3.92115C247.023 2.08887 244.735 0.714662 241.989 0.256592C239.701 0.714662 236.956 2.08887 235.125 3.92115C233.295 5.75344 231.007 7.12765 228.719 8.04379C225.974 8.50186 223.686 8.95993 220.94 8.50186C218.653 8.04379 215.907 8.50186 213.619 9.418C211.789 11.2503 210.874 13.5406 210.416 15.831C209.959 18.5794 208.586 20.8698 207.213 23.1601C205.383 24.9924 203.552 26.8247 201.264 28.1989C198.977 30.0312 196.689 31.4054 195.774 33.2377C195.316 35.528 195.774 38.2765 197.146 40.1087C198.061 42.3991 198.977 45.1475 198.977 47.8959C198.977 50.6444 198.061 53.3928 197.146 55.6831C196.231 57.9735 195.774 60.2638 195.774 62.5542C196.231 64.3865 198.519 66.2188 201.264 67.593C203.552 68.9672 205.383 70.7995 207.213 72.6317C208.586 74.9221 209.501 77.2124 210.416 79.9609C210.874 82.2512 211.789 84.5416 213.619 86.3739C215.907 87.29 218.195 87.7481 220.94 87.29C221.398 87.29 222.313 87.29 223.228 87.29C225.059 87.29 227.347 87.29 229.177 88.2061C231.465 89.1223 233.753 90.4965 235.583 92.3288C237.413 94.1611 239.701 95.5353 242.447 95.9933C245.192 95.5353 247.48 94.1611 249.31 92.3288C251.141 90.4965 253.429 89.1223 255.717 88.2061C258.462 87.7481 260.75 87.29 263.495 87.29C265.783 87.7481 268.529 87.29 270.817 86.3739C272.647 84.5416 273.562 82.2512 274.02 79.9609C274.477 77.2124 275.85 74.9221 277.223 72.6317C279.053 70.7995 280.884 68.9672 283.171 67.593C285.459 65.7607 287.747 64.3865 288.662 62.5542C288.205 60.2638 287.747 57.5154 286.832 55.6831ZM241.989 79.5028C224.601 79.5028 210.416 65.3026 210.416 47.8959C210.416 30.4892 224.601 16.2891 241.989 16.2891C259.377 16.2891 273.562 30.4892 273.562 47.8959C273.562 65.3026 259.377 79.5028 241.989 79.5028Z" fill="url(#paint3_linear)"/>
<defs>
<linearGradient id="paint0_linear" x1="241.989" y1="30.9473" x2="241.989" y2="67.1348" gradientUnits="userSpaceOnUse">
<stop stop-color="#EFFF19"/>
<stop offset="1" stop-color="#00FFB5"/>
</linearGradient>
<linearGradient id="paint1_linear" x1="212.704" y1="84.0837" x2="212.704" y2="123.936" gradientUnits="userSpaceOnUse">
<stop stop-color="#EFFF19"/>
<stop offset="1" stop-color="#00FFB5"/>
</linearGradient>
<linearGradient id="paint2_linear" x1="271.503" y1="84.0837" x2="271.503" y2="123.478" gradientUnits="userSpaceOnUse">
<stop stop-color="#EFFF19"/>
<stop offset="1" stop-color="#00FFB5"/>
</linearGradient>
<linearGradient id="paint3_linear" x1="242.132" y1="0.256592" x2="242.132" y2="95.9933" gradientUnits="userSpaceOnUse">
<stop stop-color="#EFFF19"/>
<stop offset="1" stop-color="#00FFB5"/>
</linearGradient>
</defs>
</svg>
