<svg xmlns="http://www.w3.org/2000/svg" viewBox="0 0 500 501.64"><defs><linearGradient id="A" x1="157.55" y1="292.24" x2="350.72" y2="292.24" gradientUnits="userSpaceOnUse"><stop offset="0" stop-color="#00ffb5"/><stop offset=".12" stop-color="#04ffb2"/><stop offset=".25" stop-color="#1fa"/><stop offset=".39" stop-color="#25ff9d"/><stop offset=".52" stop-color="#42ff8a"/><stop offset=".65" stop-color="#68ff71"/><stop offset=".79" stop-color="#96ff53"/><stop offset=".92" stop-color="#cbff31"/><stop offset="1" stop-color="#efff19"/></linearGradient></defs><path d="M266.42 464.36v15.83c-.07 9.55-7 16.82-16.18 16.95s-16.57-7.38-16.65-17V464.7c-3.64-.22-7.12-.22-10.55-.66-13.62-1.73-22.25-11.6-22.25-25.26v-15.05c.06-2.33 0-4.94 1-6.93 2.07-4.1 1.32-6.61-2.28-9.56-4.62-3.78-6.57-9.35-6.83-15.32-.18-4.27-.15-8.56-.05-12.84.28-11.05-4.44-19-13.84-24.9a150 150 0 0 1-21-15.34c-33.3-29.95-49.11-67.69-47.09-112.28 2.92-64 51.07-118.09 114.15-129.52 78.06-14.18 152.79 38.7 163.15 117.38 7.6 57.81-14.21 103.84-62.31 137.13-2.3 1.59-4.76 2.94-7.09 4.5-7.29 4.9-10.85 11.83-11 20.55-.07 4.43.06 8.86 0 13.28-.17 7.76-2.75 14.48-9 19.33-1.85 1.42-2 2.54-1.28 4.74a39 39 0 0 1 1.92 9.87c.32 4.7.08 9.44.09 14.16 0 15.74-10 26-25.8 26.37-2.26.05-4.43.01-7.11.01z" fill="none" stroke="#e5e5e5" stroke-miterlimit="10" stroke-width="9"/><path d="M83.6 80.14c.7-6.29 2.72-10.27 7.29-12.36s9.43-1.89 13.22 1.63c6.16 5.71 12.17 11.62 17.79 17.86 4.83 5.36 4.18 12.32-.86 17a12.47 12.47 0 0 1-16.88-.29c-5.67-5.38-11.27-10.86-16.51-16.64-2.06-2.22-3.09-5.42-4.05-7.2zm304.04 276.7c3 1.64 6.43 2.81 8.92 5 5.3 4.69 10.17 9.86 15.1 14.94 5.79 6 6 13.26.81 18.47-5 5-12.63 4.51-18.48-1.28l-15.27-15.39c-3.61-3.83-4.93-8.37-2.61-13.43 2.16-4.68 5.82-7.29 11.53-8.31zM43.75 244.9c-3.54 0-7.08.11-10.61 0-7.46-.29-12.73-5.16-13-11.83-.24-6.9 4.83-12.38 12.47-12.73s15.35-.34 23 0 12.6 5.62 12.43 12.69c-.16 6.8-5.25 11.58-12.83 11.86-3.79.11-7.62.01-11.46.01zm411.91-.01c-3.69 0-7.38.14-11.06 0-7.38-.35-12.6-5.41-12.7-12.1-.09-6.53 4.69-11.94 11.91-12.34a214.29 214.29 0 0 1 24.31 0c7.46.44 12 5.89 11.69 12.87-.27 6.59-5.3 11.27-12.65 11.58-3.83.1-7.67 0-11.5-.01zM237.81 26.76V14.82a11.92 11.92 0 0 1 11.74-11.95c6.63-.23 12.36 4.29 12.7 10.94.44 8.53.42 17.12 0 25.65-.31 6.57-6.2 11.39-12.58 11.15a12.18 12.18 0 0 1-11.87-12.34c-.06-3.84.01-7.67.01-11.51zM83.7 384.91c1-1.83 2.31-5.21 4.55-7.71 4.92-5.48 10.27-10.59 15.58-15.71 5-4.85 12.45-5 17.16-.64 5.21 4.87 5.72 11.92.68 17.4-5.59 6.07-11.45 11.92-17.52 17.52-3.79 3.5-8.55 3.83-13.22 1.67s-6.76-5.94-7.23-12.53zM403.75 66.08c5.05.51 8.62 2.74 10.94 7s2.43 8.88-.77 12.43a255.29 255.29 0 0 1-19.61 19.73c-4.47 4-11.41 2.86-15.68-1.42s-5.27-10.65-1.26-15.26A276.36 276.36 0 0 1 397 68.79c1.61-1.55 4.45-1.79 6.75-2.71z" fill="#e5e5e5"/><path d="M346.34 221.88c-23.37 0-56.4 2-73.28 18.82-7.3 7.31-10.95 19.22-10 32.7a4.39 4.39 0 0 0 7.72 2.54 102 102 0 0 1 34.71-26.31 5 5 0 0 1 3.77-.16 4.18 4.18 0 0 1 2.4 2.1c.93 2 .63 4.55-2.46 6-.17.09-.33.2-.5.28h-.19c-33.63 15.81-50.17 43.39-57.67 71.75-5.48-35.51-17-56.41-28-69.25a83.3 83.3 0 0 0-20.17-18.74 39.69 39.69 0 0 1-4.39-3.34 4.39 4.39 0 0 1 0-6.2 4.48 4.48 0 0 1 6.4.19 20.74 20.74 0 0 0 2.16 1.57l.78.53a90.77 90.77 0 0 1 28.67 29.83 4.39 4.39 0 0 0 8.06-1.43c2.29-11.69 1.26-29-9.17-39.47-16.88-16.86-49.9-18.82-73.27-18.82a4.4 4.4 0 0 0-4.39 4.39c0 23.38 2 56.4 18.83 73.28 7 7 17.88 10.2 28.66 10.2a49.09 49.09 0 0 0 24-6c9 18.66 16.2 46.55 16.2 89.21a4.39 4.39 0 1 0 8.77 0c0-23.8 4.08-52.36 19.25-75.87 6.08 5.94 16.54 9.7 28.14 10.05h1.72c11.78 0 22.19-3.69 28.75-10.26 16.87-16.87 18.82-49.9 18.82-73.28a4.36 4.36 0 0 0-4.32-4.31z" fill="url(#A)"/></svg>