<svg xmlns="http://www.w3.org/2000/svg" viewBox="0 0 500 500"><defs><linearGradient id="A" x1="118.05" y1="135.94" x2="361.26" y2="135.94" gradientUnits="userSpaceOnUse"><stop offset="0" stop-color="#00ffb5"/><stop offset=".12" stop-color="#04ffb2"/><stop offset=".25" stop-color="#1fa"/><stop offset=".39" stop-color="#25ff9d"/><stop offset=".52" stop-color="#42ff8a"/><stop offset=".65" stop-color="#68ff71"/><stop offset=".79" stop-color="#96ff53"/><stop offset=".92" stop-color="#cbff31"/><stop offset="1" stop-color="#efff19"/></linearGradient></defs><path d="M499.21 331l-10.11 7.15Q406.3 395 323.5 451.91c-15.05 10.36-31.86 15.37-49.7 18s-35.44-.23-53-3.5l-95.39-17.73c-10.48-2-20.84-2.54-30.8 1.57-5.57 2.29-10.77 5.55-15.92 8.72L39 483.88c-.89.56-1.82 1.05-3.09 1.77l-5.09-16.24q-14.86-48.77-29.7-97.53l-.86-2.73c-.55-1.71-.09-2.92 1.69-3.5 15.58-5 27.4-15.5 39.16-26.3 23.72-21.8 52.11-30.58 84-28.85 16.31.89 31.57 5.52 46.1 12.95 15.34 7.84 31.77 11.42 49 11.55q38.07.28 76.13.65c15.68.16 32.58 12 38.24 26.76 1.22 3.2 2.06 6.55 3.25 10.37-6.31-.28-11.82-.74-17.34-.73q-34.86 0-69.71.32c-8.1.08-16.2.45-24.29.95-5.34.33-8.34 3.62-8.22 8.32.1 3.94 2.18 6.82 6.08 7.52a51.4 51.4 0 0 0 9.53.61l78.35-1c9.9-.05 19.8.85 29.7 1.31 1.6.07 3.21.19 4.8.12 5.51-.24 7.78-1.9 8.86-7.33.78-3.93 2.9-6.29 6.33-8.13l95-51.09a35.14 35.14 0 0 1 40 4.43 15.51 15.51 0 0 0 3.1 1.72zM338 340.9l14.42-7.84 42.79-22.86c12.25-6.88 24.52-3.5 33.54 3.89 2.13 1.75 4.06 3.74 6.36 5.89l-83.63 45.08L338 340.9zm35.62-30.53l-26.31 14.26c-4.49 2.42-8.92 5-13.56 7.09-1.87.85-4.62 1.48-6.3.72-8.89-4-17.57-8.48-26.76-13 12.43-8 24.22-16.06 38.85-18 12.46-1.67 23.46 2.25 34.08 8.93z" fill="#e5e5e5"/><path d="M361.26 136c0 67-54.35 121.35-121.55 121.58S118 203 118.05 135.46c0-66.77 54.74-121.19 121.72-121.11A121.7 121.7 0 0 1 361.26 136zm-170.86-7.52v14.89h-9.88c-2 0-2.92.8-2.87 2.84.07 3.09 0 6.19 0 9.28 0 2.3.65 3 2.93 3h11.44a2.42 2.42 0 0 1 2.74 1.94 66.91 66.91 0 0 0 18 27c22 20.05 54.63 19.32 75.75-1.76 1.95-2 2-2.73-.05-4.59q-5.24-4.83-10.49-9.62c-2.06-1.88-2.63-1.86-4.7 0-6.25 5.57-13.42 9.15-21.88 9.53-11.68.52-21.06-4.33-28.52-13-2.35-2.73-4.22-5.87-6.3-8.83l.44-.55h32.25c2.89 0 3.43-.54 3.44-3.35v-8.41c0-2.81-.44-3.33-3.4-3.33h-37.69v-15.26h7.66q15.1 0 30.2 0c2.61 0 3.21-.6 3.22-3.13v-8.84c0-2.61-.52-3.11-3.19-3.11q-15.09 0-30.2 0H217c0-.43 0-.67.06-.84 5.41-10.22 13.14-17.84 24.63-20.68 12.16-3 22.68.59 31.76 8.92 1.87 1.71 2.53 1.75 4.36.09q5.43-4.93 10.81-9.91c1.74-1.61 1.77-2.67.09-4.36-17.92-17.91-44.45-21.64-65.81-9.3-13.56 7.83-22.56 19.56-28 34.13-.65 1.75-1.48 2.27-3.25 2.21-3.59-.13-7.19-.06-10.78 0-2.66 0-3.18.56-3.19 3.15v8.62c0 2.87.47 3.28 3.25 3.3l9.47-.03z" fill="url(#A)"/></svg>