<svg xmlns="http://www.w3.org/2000/svg" xmlns:xlink="http://www.w3.org/1999/xlink" viewBox="0 0 500 500"><defs><style>.cls-1{fill:none;}.cls-2{fill:url(#Dégradé_sans_nom_71);}.cls-3{fill:url(#Dégradé_sans_nom_71-2);}.cls-4{fill:url(#Dégradé_sans_nom_71-3);}.cls-5{fill:url(#Dégradé_sans_nom_71-4);}.cls-6{fill:#e5e5e5;}</style><linearGradient id="Dégradé_sans_nom_71" x1="363.45" y1="152.3" x2="423.74" y2="152.3" gradientUnits="userSpaceOnUse"><stop offset="0" stop-color="#00ffb5"/><stop offset="0.12" stop-color="#04ffb2"/><stop offset="0.25" stop-color="#1fa"/><stop offset="0.39" stop-color="#25ff9d"/><stop offset="0.52" stop-color="#42ff8a"/><stop offset="0.65" stop-color="#68ff71"/><stop offset="0.79" stop-color="#96ff53"/><stop offset="0.92" stop-color="#cbff31"/><stop offset="1" stop-color="#efff19"/></linearGradient><linearGradient id="Dégradé_sans_nom_71-2" x1="329.66" y1="224.74" x2="380.23" y2="224.74" xlink:href="#Dégradé_sans_nom_71"/><linearGradient id="Dégradé_sans_nom_71-3" x1="407.02" y1="224.74" x2="457.6" y2="224.74" xlink:href="#Dégradé_sans_nom_71"/><linearGradient id="Dégradé_sans_nom_71-4" x1="333.31" y1="150.52" x2="454.05" y2="150.52" xlink:href="#Dégradé_sans_nom_71"/></defs><g id="Calque_2" data-name="Calque 2"><g id="Calque_1-2" data-name="Calque 1"><rect class="cls-1" width="500" height="500"/><polygon class="cls-2" points="414.38 128.54 386.58 158.21 372.01 145.25 363.45 154.8 382.7 171.91 387.38 176.06 391.66 171.51 423.74 137.29 414.38 128.54"/><path class="cls-3" d="M366.06,209.66A22.12,22.12,0,0,1,352.22,207a17,17,0,0,1-5.59-8.42l-17,37.19,20.15-5.28a3.56,3.56,0,0,1,4.08,1.82L363.4,251l16.83-36.86a23.66,23.66,0,0,0-6.18-3.88A25.88,25.88,0,0,0,366.06,209.66Z"/><path class="cls-4" d="M440.64,198.53a16.89,16.89,0,0,1-5.59,8.42,22.12,22.12,0,0,1-13.84,2.71,25.32,25.32,0,0,0-8,.56A23.71,23.71,0,0,0,407,214.1L423.85,251l9.51-18.7a3.53,3.53,0,0,1,4.08-1.82l20.16,5.28Z"/><path class="cls-5" d="M421.41,203.1a17.25,17.25,0,0,0,9.51-1.32,17.11,17.11,0,0,0,4.24-8.68,30.24,30.24,0,0,1,4-9.55,30.68,30.68,0,0,1,7.76-6.69c3.17-2.17,6.2-4.24,7-6.76a16.65,16.65,0,0,0-1.68-9.26,32.76,32.76,0,0,1-2.35-10.32,32.18,32.18,0,0,1,2.35-10.29,16.8,16.8,0,0,0,1.68-9.3c-.82-2.52-3.85-4.59-7-6.76a30,30,0,0,1-7.76-6.69,30,30,0,0,1-4-9.51,17.06,17.06,0,0,0-4.24-8.69,16.89,16.89,0,0,0-9.51-1.35A30.43,30.43,0,0,1,411.05,97a30.73,30.73,0,0,1-8.61-5.27,17.37,17.37,0,0,0-8.76-4.63,17.37,17.37,0,0,0-8.76,4.63A30.73,30.73,0,0,1,376.31,97a30.4,30.4,0,0,1-10.36.89,16.89,16.89,0,0,0-9.51,1.35A17.14,17.14,0,0,0,352.2,108a30,30,0,0,1-4,9.51,30,30,0,0,1-7.76,6.69c-3.17,2.17-6.2,4.24-7,6.76a16.71,16.71,0,0,0,1.67,9.3,31.92,31.92,0,0,1,2.35,10.29,32.48,32.48,0,0,1-2.35,10.32,16.56,16.56,0,0,0-1.67,9.26c.81,2.52,3.84,4.59,7,6.76a30.68,30.68,0,0,1,7.76,6.69,30.24,30.24,0,0,1,4,9.55,17.11,17.11,0,0,0,4.24,8.68A16.9,16.9,0,0,0,366,203.1c.89,0,1.81,0,2.74,0a24.89,24.89,0,0,1,7.62,1,29.79,29.79,0,0,1,8.61,5.23,17,17,0,0,0,8.76,4.63,17,17,0,0,0,8.76-4.63,29.79,29.79,0,0,1,8.61-5.23A31.73,31.73,0,0,1,421.41,203.1Zm-27.73-10.87a41.72,41.72,0,1,1,41.72-41.71A41.71,41.71,0,0,1,393.68,192.23Z"/><path class="cls-6" d="M0,350.36a25.27,25.27,0,0,0,25.26,25.27H209.39v36.68H156v28.91H344V412.31H290.61V375.63H474.74A25.27,25.27,0,0,0,500,350.36V336.61H0Z"/><path class="cls-6" d="M474.74,58.78H25.26A25.27,25.27,0,0,0,0,84V324.57H500V84.05A25.27,25.27,0,0,0,474.74,58.78Zm11.77,250h-475V93.92c0-12.46,10.74-22.57,24-22.57H462.51c13.25,0,24,10.11,24,22.57Z"/></g></g></svg>