<svg xmlns="http://www.w3.org/2000/svg" xmlns:xlink="http://www.w3.org/1999/xlink" viewBox="0 0 500 500"><defs><linearGradient id="A" x1="363.45" y1="152.3" x2="423.74" y2="152.3" gradientUnits="userSpaceOnUse"><stop offset="0" stop-color="#00ffb5"/><stop offset=".12" stop-color="#04ffb2"/><stop offset=".25" stop-color="#1fa"/><stop offset=".39" stop-color="#25ff9d"/><stop offset=".52" stop-color="#42ff8a"/><stop offset=".65" stop-color="#68ff71"/><stop offset=".79" stop-color="#96ff53"/><stop offset=".92" stop-color="#cbff31"/><stop offset="1" stop-color="#efff19"/></linearGradient><linearGradient id="B" x1="329.66" y1="224.74" x2="380.23" y2="224.74" xlink:href="#A"/><linearGradient id="C" x1="407.02" y1="224.74" x2="457.6" y2="224.74" xlink:href="#A"/><linearGradient id="D" x1="333.31" y1="150.52" x2="454.05" y2="150.52" xlink:href="#A"/></defs><path d="M414.38 128.54l-27.8 29.67-14.57-12.96-8.56 9.55 19.25 17.11 4.68 4.15 4.28-4.55 32.08-34.22-9.36-8.75z" fill="url(#A)"/><path d="M366.06 209.66a22.12 22.12 0 0 1-13.84-2.66 17 17 0 0 1-5.59-8.42l-17 37.19 20.15-5.28a3.56 3.56 0 0 1 4.08 1.82L363.4 251l16.83-36.86a23.66 23.66 0 0 0-6.18-3.88 25.88 25.88 0 0 0-7.99-.6z" fill="url(#B)"/><path d="M440.64,198.53a16.89,16.89,0,0,1-5.59,8.42,22.12,22.12,0,0,1-13.84,2.71,25.32,25.32,0,0,0-8,.56A23.71,23.71,0,0,0,407,214.1L423.85,251l9.51-18.7a3.53,3.53,0,0,1,4.08-1.82l20.16,5.28Z" fill="url(#C)"/><path d="M421.41 203.1a17.25 17.25 0 0 0 9.51-1.32 17.11 17.11 0 0 0 4.24-8.68 30.24 30.24 0 0 1 4-9.55 30.68 30.68 0 0 1 7.76-6.69c3.17-2.17 6.2-4.24 7-6.76a16.65 16.65 0 0 0-1.68-9.26 32.76 32.76 0 0 1-2.35-10.32 32.18 32.18 0 0 1 2.35-10.29 16.8 16.8 0 0 0 1.68-9.3c-.82-2.52-3.85-4.59-7-6.76a30 30 0 0 1-7.76-6.69 30 30 0 0 1-4-9.51 17.06 17.06 0 0 0-4.24-8.69 16.89 16.89 0 0 0-9.51-1.35 30.43 30.43 0 0 1-10.36-.93 30.73 30.73 0 0 1-8.61-5.27 17.37 17.37 0 0 0-8.76-4.63 17.37 17.37 0 0 0-8.76 4.63 30.73 30.73 0 0 1-8.61 5.27 30.4 30.4 0 0 1-10.36.89 16.89 16.89 0 0 0-9.51 1.35 17.14 17.14 0 0 0-4.24 8.76 30 30 0 0 1-4 9.51 30 30 0 0 1-7.76 6.69c-3.17 2.17-6.2 4.24-7 6.76a16.71 16.71 0 0 0 1.67 9.3 31.92 31.92 0 0 1 2.35 10.29 32.48 32.48 0 0 1-2.35 10.32 16.56 16.56 0 0 0-1.67 9.26c.81 2.52 3.84 4.59 7 6.76a30.68 30.68 0 0 1 7.76 6.69 30.24 30.24 0 0 1 4 9.55 17.11 17.11 0 0 0 4.24 8.68 16.9 16.9 0 0 0 9.56 1.29h2.74a24.89 24.89 0 0 1 7.62 1 29.79 29.79 0 0 1 8.61 5.23 17 17 0 0 0 8.76 4.63 17 17 0 0 0 8.76-4.63 29.79 29.79 0 0 1 8.61-5.23 31.73 31.73 0 0 1 10.31-1zm-27.73-10.87a41.72 41.72 0 1 1 41.72-41.71 41.71 41.71 0 0 1-41.72 41.71z" fill="url(#D)"/><path d="M0 350.36a25.27 25.27 0 0 0 25.26 25.27h184.13v36.68H156v28.91h188v-28.91h-53.39v-36.68h184.13A25.27 25.27 0 0 0 500 350.36v-13.75H0zM474.74 58.78H25.26A25.27 25.27 0 0 0 0 84v240.57h500V84.05a25.27 25.27 0 0 0-25.26-25.27zm11.77 250h-475V93.92c0-12.46 10.74-22.57 24-22.57h427c13.25 0 24 10.11 24 22.57z" fill="#e5e5e5"/></svg>