<svg xmlns="http://www.w3.org/2000/svg" width="26" height="20" fill="#e5e5e5"><path d="M9.43 1.01C4.31 5.52 3.495 6.665 3.391 9.144c1.302-.171 2.638-.579 3.934-.466 2.962.248 4.825 2.78 4.692 6.039-.122 2.957-2.221 5.124-5.102 5.272-4.263.224-6.612-1.995-6.884-6.34-.272-4.274 1.707-7.456 4.605-10.183C5.867 2.302 7.267 1.328 8.597.278c.428-.331.746-.366.949-.1.191.254.121.626-.116.832zm13.496 0c-5.12 4.51-5.935 5.649-6.039 8.135 1.302-.171 2.638-.579 3.934-.466 2.962.248 4.825 2.78 4.692 6.039-.122 2.957-2.221 5.124-5.102 5.272-4.263.224-6.612-1.995-6.884-6.34-.266-4.274 1.712-7.45 4.611-10.177C19.37 2.31 20.77 1.336 22.101.285c.422-.336.746-.366.949-.1.185.248.116.62-.122.826z"/></svg>