<svg xmlns="http://www.w3.org/2000/svg" viewBox="0 0 63.88 39.37"><defs><linearGradient id="A" y1="19.68" x2="64.42" y2="19.68" gradientUnits="userSpaceOnUse"><stop offset="0" stop-color="#00ffb5"/><stop offset=".12" stop-color="#04ffb2"/><stop offset=".25" stop-color="#1fa"/><stop offset=".39" stop-color="#25ff9d"/><stop offset=".52" stop-color="#42ff8a"/><stop offset=".65" stop-color="#68ff71"/><stop offset=".79" stop-color="#96ff53"/><stop offset=".92" stop-color="#cbff31"/><stop offset="1" stop-color="#efff19"/></linearGradient></defs><path d="M61.07 16.85C57.34 8.22 50.82 3.17 40.79 3.77l-12.6.9-16 .83a22.91 22.91 0 0 1-5.26-.62A10 10 0 0 1 0 0a14.15 14.15 0 0 0 .21 2.2 24.62 24.62 0 0 0 6 11.52 56.6 56.6 0 0 0 18 13.53l1.26.66c-1.61 2.18-4.12 1.55-6.36 2.31l5.4 3.78a29.67 29.67 0 0 0 11.6 4.71 48.08 48.08 0 0 0 16.75-.11c1.4-.23 2.79-.51 4.23-.78.48-.58.94-1.17 1.39-1.78A42.37 42.37 0 0 0 52 24.47a15.7 15.7 0 0 0-9.66-5.63c-3-.49-6-.72-9-1l-9.45-.94v-.28c.81.08 1.62.19 2.44.23l14.42.6c4.8.33 9.05 1.93 12.34 5.48a31.35 31.35 0 0 1 4.74 6.18q1.2 2.24 2.32 4.5a41.9 41.9 0 0 0 3.72-7.2 43.4 43.4 0 0 0-2.8-9.56z" fill="url(#A)"/></svg>