<svg xmlns="http://www.w3.org/2000/svg" xmlns:xlink="http://www.w3.org/1999/xlink" viewBox="0 0 130.31 50.6"><defs><clipPath id="A" transform="translate(.98 11.75)"><path d="M99.48 3.22a10.22 10.22 0 0 0-7.09-2.5 11.78 11.78 0 0 0-5.83 1.45 11.4 11.4 0 0 0-4.18 3.88 10.9 10.9 0 0 0-.81 1.55 7.78 7.78 0 0 1 2.63-1.07c3.24-.51 10.14.75 9.19.49a46.62 46.62 0 0 0-5.59-1.21c-2.56-.37-4.26.56-4.43.12S84.59 4.5 85.76 4a5.39 5.39 0 0 1 1.3-.38 7.86 7.86 0 0 1 2.65 0 27.46 27.46 0 0 1 4.17 1.17 20.91 20.91 0 0 0 3 .85 4.55 4.55 0 0 0 2.17-.08h0v.07a10.16 10.16 0 0 1-6.14 4.92 9.33 9.33 0 0 1-6.43-.52A14.12 14.12 0 0 1 83 7.91a.32.32 0 0 0-.31-.08 3.81 3.81 0 0 0-1.54.87 10.77 10.77 0 0 0-.37 2.81 11.45 11.45 0 0 0 1.33 5.6A9.44 9.44 0 0 0 86 20.92a12.91 12.91 0 0 0 6.22 1.38 12.28 12.28 0 0 0 3.51-.55 16.53 16.53 0 0 0 3.47-1.47l-2.82-4.78a11.06 11.06 0 0 1-1.95 1 5.94 5.94 0 0 1-2 .37 5.48 5.48 0 0 1-2.66-.65 4.4 4.4 0 0 1-1.31-1.08l14.67-4.66a12.28 12.28 0 0 0-3.65-7.26z" fill="none"/></clipPath><linearGradient id="B" x1="8.24" y1="24.12" x2="129.46" y2="24.12" gradientUnits="userSpaceOnUse"><stop offset="0" stop-color="#00ffb5"/><stop offset=".12" stop-color="#04ffb2"/><stop offset=".25" stop-color="#1fa"/><stop offset=".39" stop-color="#25ff9d"/><stop offset=".52" stop-color="#42ff8a"/><stop offset=".65" stop-color="#68ff71"/><stop offset=".79" stop-color="#96ff53"/><stop offset=".92" stop-color="#cbff31"/><stop offset="1" stop-color="#efff19"/></linearGradient><clipPath id="C" transform="translate(.98 11.75)"><path d="M74 3.22a10.22 10.22 0 0 0-7.13-2.5A11.78 11.78 0 0 0 61 2.17a11.4 11.4 0 0 0-4.18 3.88 10.9 10.9 0 0 0-.81 1.55 7.78 7.78 0 0 1 2.63-1.07c3.24-.51 10.14.75 9.19.49a47.08 47.08 0 0 0-5.59-1.21c-2.56-.37-4.26.56-4.43.12S59.07 4.5 60.24 4a5.39 5.39 0 0 1 1.3-.38 7.86 7.86 0 0 1 2.65 0 27.46 27.46 0 0 1 4.17 1.17 20.91 20.91 0 0 0 3 .85 4.55 4.55 0 0 0 2.17-.08h0v.07a10.16 10.16 0 0 1-6.13 4.97 9.33 9.33 0 0 1-6.4-.52 14.12 14.12 0 0 1-3.45-2.17.32.32 0 0 0-.31-.08 3.81 3.81 0 0 0-1.54.87 10.36 10.36 0 0 0-.37 2.81 11.45 11.45 0 0 0 1.33 5.6 9.44 9.44 0 0 0 3.88 3.81 12.91 12.91 0 0 0 6.22 1.38 12.28 12.28 0 0 0 3.51-.55 16.53 16.53 0 0 0 3.47-1.47l-2.88-4.78a11.06 11.06 0 0 1-2 1 5.94 5.94 0 0 1-2 .37 5.48 5.48 0 0 1-2.66-.65 4.4 4.4 0 0 1-1.31-1.08l14.67-4.66A12.28 12.28 0 0 0 74 3.22z" fill="none"/></clipPath><linearGradient id="D" x1="7.55" x2="128.77" xlink:href="#B"/><clipPath id="E" transform="translate(.98 11.75)"><path d="M21.31 3.8a9.05 9.05 0 0 0-3.44-2.21A14.78 14.78 0 0 0 12.4.68a11.36 11.36 0 0 0-6 1.72 13.4 13.4 0 0 0-4.62 4.7A13 13 0 0 0 0 13.91a13.15 13.15 0 0 0 1.67 6.64 12.55 12.55 0 0 0 4.47 4.62 11.56 11.56 0 0 0 6.09 1.69 11.65 11.65 0 0 0 6.12-1.42A9 9 0 0 0 21 23.08h.27v3a4.75 4.75 0 0 1-1 3.06A6.1 6.1 0 0 1 17.76 31a8.94 8.94 0 0 1-3.42.64 8.22 8.22 0 0 1-4.47-1.08 23 23 0 0 1-3-2.25l-4.53 5.33 2.77 2.12a15 15 0 0 0 3.81 1.89 17.35 17.35 0 0 0 5.53.77 16.7 16.7 0 0 0 7.32-1.58 13.76 13.76 0 0 0 5.3-4.34 10.39 10.39 0 0 0 2-6.31v-5l-2.15-4.36a10.75 10.75 0 0 0-1.52-2 5.78 5.78 0 0 0-4-1.76l-4.62-.2c-.26 0-.53 0-.79-.07v.09l3 .3 2.9.33a5.08 5.08 0 0 1 3.1 1.81 14.6 14.6 0 0 1 2.25 4.15l-2 .37a15.19 15.19 0 0 1-5.38 0 9.53 9.53 0 0 1-3.72-1.51l-1.75-1.21c.71-.24 1.52 0 2-.74l-.41-.21a18.21 18.21 0 0 1-5.77-4.34 7.88 7.88 0 0 1-1.91-3.7 5.35 5.35 0 0 1-.07-.7A3.21 3.21 0 0 0 10.46 9a6.83 6.83 0 0 0 1.68.2l5.27-.2 4-.28c3.22-.2 5.32 1.42 6.51 4.19a15.1 15.1 0 0 1 1.12 4.62V1.9H21.9z" fill="none"/></clipPath><linearGradient id="F" x1="0" y1="25.3" x2="123.53" y2="25.3" xlink:href="#B"/><clipPath id="G" transform="translate(.98 11.75)"><path d="M50.44 1.2c-.73 0-1.46-.09-2.19-.13a10.83 10.83 0 0 0-2.13 0 3.92 3.92 0 0 0-1.7.58 5.24 5.24 0 0 0-2.2 2.9 3.94 3.94 0 0 0 0 2.33v.07a5.73 5.73 0 0 1 1.47-1 26.76 26.76 0 0 1 4.05-1.72h0 0a23.58 23.58 0 0 0-6.28 4.18V1.64h-6.34V22h6.43V9.72A8.78 8.78 0 0 1 43 8.29a3.92 3.92 0 0 0 2.79 1.14 5.28 5.28 0 0 0 3.05-.91 4.83 4.83 0 0 0 1.26-1.29 15.59 15.59 0 0 0 1.55-3.08q.51-1.31.9-2.64l.16-.57h-.06a7.82 7.82 0 0 1-2.21.26z" fill="none"/></clipPath><linearGradient id="H" x1="5.3" x2="126.52" xlink:href="#B"/><clipPath id="I" transform="translate(.98 11.75)"><path d="M127.67 5.79a7.6 7.6 0 0 1-.78 1.84 8.75 8.75 0 0 1-1.55 2 6.92 6.92 0 0 1-3.49 1.71c-.22 0-.44.08-.66.1V22h6.67V7.19a5.7 5.7 0 0 0-.19-1.4z" fill="none"/></clipPath><linearGradient id="J" x1="9.09" x2="130.31" xlink:href="#B"/><clipPath id="K" transform="translate(.98 11.75)"><path d="M125.16 9.07a8.94 8.94 0 0 0 1.55-2.13A8.79 8.79 0 0 0 127.5 5a6.83 6.83 0 0 0 .22-1.57h0V1.3a2.62 2.62 0 0 0 0-.28c0-.32 0-.64-.07-1 0 0-.07 0-.08.06a7.76 7.76 0 0 1-2.29 1.4 10.26 10.26 0 0 1-1.46.44 21.46 21.46 0 0 1-3.48.33 27 27 0 0 0-4.31.45 5.92 5.92 0 0 0-2.35.95V1.37h-6v13.44a46.77 46.77 0 0 1 2.7-5v-.05a.3.3 0 0 0 .1-.09A12.38 12.38 0 0 1 113 7.1l.94-.65a15.52 15.52 0 0 1 2.27-1.22 4.14 4.14 0 0 1 .61-.26l1.67-.6.51-.17 1.38-.35h0l-.72.25-.66.25-.88.36a19.69 19.69 0 0 0-3.84 2.18l-1 .76-.18.16h-.06 0a12.18 12.18 0 0 0-2.04 2.36l-.23.34a14.41 14.41 0 0 0-1.3 2.49l-.84 1.72a7.21 7.21 0 0 0-1 2.92v3.8h6V10.77a7 7 0 0 1 1.21 0l3.68.26a10.45 10.45 0 0 0 2.5 0c.22 0 .44-.06.66-.11a6.74 6.74 0 0 0 3.48-1.85z" fill="none"/></clipPath></defs><g clip-path="url(#A)"><path d="M8.24 0h121.22v48.25H8.24z" fill="url(#B)"/></g><g clip-path="url(#C)"><path d="M7.55 0h121.22v48.25H7.55z" fill="url(#D)"/></g><g clip-path="url(#E)"><path d="M0 0h123.53v50.6H0z" fill="url(#F)"/></g><g clip-path="url(#G)"><path d="M5.3 0h121.22v48.25H5.3z" fill="url(#H)"/></g><g clip-path="url(#I)"><path d="M9.09 0h121.22v48.25H9.09z" fill="url(#J)"/></g><g clip-path="url(#K)"><path d="M9.09 0h121.22v48.25H9.09z" fill="url(#J)"/></g><path d="M36.17 47.89l3.92-9.21h.09l3.91 9.21h-1.62l-2.77-7 1-.67-3.15 7.67zm2.48-3.28h3l.49 1.19h-3.93zm15.77-3.75a6.56 6.56 0 0 0-1-.44 3.51 3.51 0 0 0-1-.17 1.66 1.66 0 0 0-1 .29 1 1 0 0 0-.38.8.9.9 0 0 0 .26.64 2.34 2.34 0 0 0 .68.47 8.76 8.76 0 0 0 .87.39 6.07 6.07 0 0 1 .79.34 3.58 3.58 0 0 1 .71.49 1.85 1.85 0 0 1 .51.73 2.61 2.61 0 0 1 .12 1.06 2.31 2.31 0 0 1-.34 1.29 2.43 2.43 0 0 1-1 .91 3.45 3.45 0 0 1-1.59.35 4.92 4.92 0 0 1-1.07-.14 5.33 5.33 0 0 1-1-.33 4.46 4.46 0 0 1-.88-.5l.64-1.09a4.12 4.12 0 0 0 .66.4 4.3 4.3 0 0 0 .78.29 2.9 2.9 0 0 0 .75.11 2.19 2.19 0 0 0 .75-.13 1.31 1.31 0 0 0 .63-.41 1.09 1.09 0 0 0 .24-.75 1 1 0 0 0-.22-.64 2.19 2.19 0 0 0-.56-.46 6.7 6.7 0 0 0-.76-.36l-.84-.35a4.12 4.12 0 0 1-.81-.48 2.1 2.1 0 0 1-.59-.7 2.19 2.19 0 0 1-.22-1 2.4 2.4 0 0 1 .33-1.27 2.29 2.29 0 0 1 .94-.85 3.17 3.17 0 0 1 1.39-.34 5 5 0 0 1 1.6.22 6.22 6.22 0 0 1 1.17.52zm11.25 0a6.16 6.16 0 0 0-1-.44 3.4 3.4 0 0 0-1-.17 1.68 1.68 0 0 0-1 .29 1 1 0 0 0-.38.8.9.9 0 0 0 .26.64 2.34 2.34 0 0 0 .68.47 9.93 9.93 0 0 0 .87.39 6.07 6.07 0 0 1 .79.34 3.58 3.58 0 0 1 .71.49 1.85 1.85 0 0 1 .51.73 2.61 2.61 0 0 1 .19 1.06 2.39 2.39 0 0 1-.4 1.29 2.46 2.46 0 0 1-1 .91 3.39 3.39 0 0 1-1.59.35 5 5 0 0 1-1.09-.12 5.58 5.58 0 0 1-1-.33 4.11 4.11 0 0 1-.87-.5l.63-1.11a3.83 3.83 0 0 0 .67.4 4.2 4.2 0 0 0 .77.29 2.91 2.91 0 0 0 .76.11 2.18 2.18 0 0 0 .74-.13 1.31 1.31 0 0 0 .63-.41 1.09 1.09 0 0 0 .24-.75 1 1 0 0 0-.22-.64 2.19 2.19 0 0 0-.56-.46 6.7 6.7 0 0 0-.76-.36l-.84-.35a4.12 4.12 0 0 1-.81-.48 2.23 2.23 0 0 1-.59-.7 2.19 2.19 0 0 1-.21-1 2.4 2.4 0 0 1 .32-1.27 2.31 2.31 0 0 1 1-.85 3.1 3.1 0 0 1 1.39-.34 5 5 0 0 1 1.59.22 6 6 0 0 1 1.19.55zm6.61-1.81h5.87v1.36H73.7v2.34h4v1.36h-4v2.41h4.62v1.36h-6zm12.18 8.84v-9.14h0l4.76 6.74-.6-.13 4.74-6.61h0v9.16h-1.38v-6l.08.71-3.19 4.53h0l-3.25-4.53.24-.65v5.9zm17.96-8.84a3.69 3.69 0 0 1 2.13.54 1.92 1.92 0 0 1 .78 1.68 2.21 2.21 0 0 1-.35 1.28 2.33 2.33 0 0 1-1 .82 3.39 3.39 0 0 1-1.44.29l-.21-.74a4.89 4.89 0 0 1 1.73.31 3 3 0 0 1 1.22.84 2 2 0 0 1 .45 1.29 2.43 2.43 0 0 1-.25 1.16 2.27 2.27 0 0 1-.68.79 3 3 0 0 1-1 .44 4.54 4.54 0 0 1-1.1.14h-2.72v-8.84zm.23 3.76a1.12 1.12 0 0 0 .93-.37 1.36 1.36 0 0 0 .3-.88 1 1 0 0 0-.38-.87 1.65 1.65 0 0 0-1-.28h-1.06v2.4zm0 3.77a2.55 2.55 0 0 0 .81-.13 1.3 1.3 0 0 0 .58-.41 1 1 0 0 0 .22-.68 1 1 0 0 0-.25-.71 1.54 1.54 0 0 0-.65-.37 3 3 0 0 0-.81-.11h-1.18v2.41zm9.19-7.53h1.42v7.48h4.36v1.36h-5.78zm13.01 5.96l-3.27-6h1.74l2.49 4.76h-.44l2.47-4.78h1.74l-3.32 6v2.88h-1.41z" fill="#00ffb5"/></svg>